<svg xmlns="http://www.w3.org/2000/svg" fill="none" viewBox="0 0 110 111" height="111" width="110">
<path fill="#68411E" d="M63.8589 31.9515C68.314 34.0679 85.5346 42.389 83.0197 56.8476C81.5962 63.6785 78.7707 66.0684 83.2398 71.7316C87.709 77.3948 77.7459 81.5117 79.7324 88.0716C81.719 94.6315 90.2874 93.2342 92.2886 100.953C94.6131 107.579 86.1202 110.032 86.1202 110.032L9.56107 110.002C9.56107 110.002 4.53773 105.54 6.60045 100.958C9.77772 91.8192 17.17 94.6364 19.1566 88.0765C21.1431 81.5166 12.1071 77.3997 16.5763 71.7365L17.5459 70.5024C21.3011 65.6857 18.112 63.1659 16.7964 56.8524C14.2815 42.3939 30.0424 34.1546 34.4975 32.0381C37.9156 29.7605 41.6446 27.8517 49.1992 27.8504C56.7539 27.8492 60.3614 29.6208 63.8589 31.9515Z" clip-rule="evenodd" fill-rule="evenodd"></path>
<path fill="#553416" d="M74.8161 58.6435L74.3581 59.2894C73.5298 60.4577 73.3032 61.5752 73.2807 62.397C73.2694 62.809 73.3095 63.1473 73.3517 63.3805C73.3728 63.4971 73.3944 63.587 73.4102 63.6465C73.4182 63.6762 73.4246 63.6982 73.4289 63.7121L73.4334 63.7267L73.4342 63.7289L73.4342 63.7291L73.4343 63.7293L73.4343 63.7293L73.4343 63.7294L73.6335 64.3123L73.0519 64.1071L70.6521 63.2605L70.4642 63.1942L70.4531 62.9953L70.7515 62.9787C70.4531 62.9953 70.4531 62.9951 70.4531 62.9949L70.4531 62.9944L70.453 62.9933L70.4529 62.9903L70.4525 62.9809C70.4522 62.9732 70.4519 62.9627 70.4517 62.9494C70.4512 62.923 70.4512 62.8857 70.4524 62.8389C70.455 62.7453 70.4629 62.6133 70.4842 62.4534C70.5266 62.1341 70.6225 61.6991 70.8377 61.2351C71.2735 60.2953 72.1862 59.2656 74.0455 58.8257L74.8161 58.6435ZM71.0537 62.7684L72.7431 63.3644C72.7036 63.1085 72.6725 62.7737 72.6832 62.3807C72.7038 61.6281 72.878 60.6639 73.4367 59.6379C72.2721 60.0929 71.6838 60.8314 71.3799 61.4866C71.1958 61.8837 71.1131 62.2577 71.0767 62.532C71.0645 62.6233 71.0576 62.7031 71.0537 62.7684ZM23.5891 70.7237C23.6196 70.7169 23.6521 70.7198 23.6866 70.7316C23.5973 70.732 23.5635 70.7294 23.5891 70.7237ZM23.6866 70.7316C26.2746 70.7211 75.4842 68.2481 75.4842 68.2481C75.4842 68.2481 74.211 75.0447 68.9153 75.4848C66.7207 85.3447 56.8173 88.1081 56.8173 88.1081L43.3753 88.4166C43.3753 88.4166 35.3691 87.4848 30.6259 76.5184C27.7018 76.524 25.8363 73.7039 24.7059 71.9951L24.7059 71.9951C24.2569 71.3163 23.9238 70.8129 23.6866 70.7316ZM24.8563 59.9825L24.3983 59.3366L25.1689 59.5188C27.0282 59.9587 27.9409 60.9884 28.3767 61.9282C28.5919 62.3922 28.6878 62.8272 28.7302 63.1465C28.7515 63.3064 28.7594 63.4384 28.762 63.532C28.7632 63.5788 28.7632 63.6161 28.7627 63.6425C28.7625 63.6558 28.7622 63.6663 28.7619 63.674L28.7615 63.6834L28.7614 63.6864L28.7613 63.6875L28.7613 63.688C28.7613 63.6882 28.7613 63.6884 28.4629 63.6718L28.7613 63.6884L28.7502 63.8873L28.5623 63.9536L26.1626 64.8002L25.5809 65.0054L25.7801 64.4225L25.7801 64.4224L25.7801 64.4223L25.7802 64.4222L25.7803 64.422L25.781 64.4198L25.7856 64.4052C25.7898 64.3913 25.7963 64.3693 25.8042 64.3396C25.82 64.2801 25.8416 64.1901 25.8627 64.0736C25.9049 63.8404 25.945 63.5021 25.9337 63.0901C25.9112 62.2683 25.6846 61.1508 24.8563 59.9825ZM26.4713 64.0575L28.1607 63.4615C28.1568 63.3962 28.1499 63.3164 28.1378 63.2251C28.1013 62.9508 28.0186 62.5768 27.8345 62.1797C27.5307 61.5245 26.9423 60.786 25.7777 60.331C26.3364 61.357 26.5106 62.3212 26.5312 63.0738C26.5419 63.4668 26.5108 63.8016 26.4713 64.0575Z" clip-rule="evenodd" fill-rule="evenodd"></path>
<path fill="#FAB5A3" d="M43.2106 89.9233C43.2106 89.9233 43.7337 93.7249 43.6737 95.2075C42.7193 96.3927 37.2642 98.2141 37.7897 98.4299C39.4034 99.0927 45.0747 104.294 49.4869 104.202C54.2835 104.102 58.7206 98.4987 59.6773 98.1097C60.0156 97.9721 55.8446 95.5022 55.3445 95.2075C54.8444 94.9128 55.3445 89.9233 55.3445 89.9233H43.2106Z" clip-rule="evenodd" fill-rule="evenodd"></path>
<mask height="16" width="23" y="89" x="37" maskUnits="userSpaceOnUse" style="mask-type:alpha" id="mask0_1:753">
<path fill="white" d="M43.2106 89.9233C43.2106 89.9233 43.7337 93.7249 43.6737 95.2075C42.7193 96.3927 37.2642 98.2141 37.7897 98.4299C39.4034 99.0927 45.0747 104.294 49.4869 104.202C54.2835 104.102 58.7206 98.4987 59.6773 98.1097C60.0156 97.9721 55.8446 95.5022 55.3445 95.2075C54.8444 94.9128 55.3445 89.9233 55.3445 89.9233H43.2106Z" clip-rule="evenodd" fill-rule="evenodd"></path>
</mask>
<g mask="url(#mask0_1:753)">
<path fill="white" d="M43.8458 98.5912C43.8458 98.5912 49.3639 100.313 55.6344 98.3585C63.7231 96.8153 49.4515 106.821 49.2939 106.741C49.1364 106.66 41.8236 104.277 41.8979 103.963C41.9722 103.65 43.8458 98.5912 43.8458 98.5912Z" clip-rule="evenodd" fill-rule="evenodd"></path>
<g opacity="0.348749" style="mix-blend-mode:multiply">
<path fill="#E89A85" d="M41.0317 88.0084C41.0317 88.0084 45.5814 94.579 53.5091 95.1136C59.7883 96.0453 55.125 84.9276 55.1455 84.9714C55.166 85.0152 41.0317 88.0084 41.0317 88.0084Z" clip-rule="evenodd" fill-rule="evenodd"></path>
</g>
</g>
<path fill="#FF5A5A" d="M39.5866 96.7521L41.1786 95.9942C41.1786 95.9942 47.1396 99.7441 49.3705 101.867C51.7952 99.6194 57.6761 95.9942 57.6761 95.9942L60.101 97.0233L52.5629 106.113L42.7033 105.788L39.5866 96.7521Z" clip-rule="evenodd" fill-rule="evenodd"></path>
<path fill="#5A6ED5" d="M39.5863 96.7521C39.5863 96.7521 29.3673 98.9394 27.3178 99.8175C27.1841 99.8748 26.8257 100.268 26.7116 100.319C25.5414 100.835 24.0898 101.084 23.5136 101.42C18.9302 103.806 17.8555 110.002 17.8555 110.002H81.7653C81.7653 110.002 81.3466 104.033 76.6937 101.604C75.9152 101.198 74.3085 100.62 73.2218 100.137C73.1096 100.087 73.0164 99.855 72.891 99.8007C70.5997 98.8087 59.2141 96.5928 59.2141 96.5928C59.2141 96.5928 50.9508 104.208 49.4183 105.971C47.5756 103.921 39.5863 96.7521 39.5863 96.7521Z" clip-rule="evenodd" fill-rule="evenodd"></path>
<mask height="15" width="65" y="96" x="17" maskUnits="userSpaceOnUse" style="mask-type:alpha" id="mask1_1:753">
<path fill="white" d="M39.5863 96.7521C39.5863 96.7521 29.3673 98.9394 27.3178 99.8175C27.1841 99.8748 26.8257 100.268 26.7116 100.319C25.5414 100.835 24.0898 101.084 23.5136 101.42C18.9302 103.806 17.8555 110.002 17.8555 110.002H81.7653C81.7653 110.002 81.3466 104.033 76.6937 101.604C75.9152 101.198 74.3085 100.62 73.2218 100.137C73.1096 100.087 73.0164 99.855 72.891 99.8007C70.5997 98.8087 59.2141 96.5928 59.2141 96.5928C59.2141 96.5928 50.9508 104.208 49.4183 105.971C47.5756 103.921 39.5863 96.7521 39.5863 96.7521Z" clip-rule="evenodd" fill-rule="evenodd"></path>
</mask>
<g mask="url(#mask1_1:753)">
<path fill="#2D3669" d="M34.9965 101.969C34.9965 101.969 38.4051 108.524 37.7352 114.326C37.7718 119.177 61.3935 114.753 61.3935 114.753C61.3935 114.753 62.0364 102.451 64.2604 101.926C61.944 99.5858 34.9965 101.969 34.9965 101.969Z" clip-rule="evenodd" fill-rule="evenodd"></path>
<g opacity="0.395043" style="mix-blend-mode:multiply">
<path fill="#2D3669" d="M51.1517 110.928C51.1517 110.928 64.1998 100.89 76.5106 98.598C83.0901 99.7053 73.1283 95.9942 73.1283 95.9942L58.0726 99.421L49.9066 110.928H51.1517Z" clip-rule="evenodd" fill-rule="evenodd"></path>
</g>
<g opacity="0.395043" style="mix-blend-mode:multiply">
<path fill="#2D3669" d="M49.709 111.994C49.709 111.994 36.6609 101.955 24.3501 99.6637C17.7706 100.771 27.7324 97.0599 27.7324 97.0599L42.788 100.487L50.9541 111.994H49.709Z" clip-rule="evenodd" fill-rule="evenodd"></path>
</g>
<path fill="#1D2343" d="M25.1544 98.9983C25.1544 98.9983 34.758 101.761 38.9315 104.154C43.105 106.548 49.6869 111.413 49.6869 111.413C49.6869 111.413 54.5848 107.199 59.5463 104.483C64.5079 101.768 73.3862 98.5421 73.3862 98.5421L47.6604 89.1054L25.1544 98.9983Z" clip-rule="evenodd" fill-rule="evenodd"></path>
<g opacity="0.395043" style="mix-blend-mode:multiply">
<path fill="#2D3669" d="M25.8461 115.438L27.0176 106.811L27.7716 115.438H25.8461Z" clip-rule="evenodd" fill-rule="evenodd"></path>
</g>
<g opacity="0.395043" style="mix-blend-mode:multiply">
<path fill="#2D3669" d="M71.4602 116.205L72.6316 107.579L73.3856 116.205H71.4602Z" clip-rule="evenodd" fill-rule="evenodd"></path>
</g>
</g>
<path fill="#FAB5A3" d="M72.0814 62.6516C72.0814 62.6516 77.9825 56.0044 82.9566 61.5015C87.9308 66.9987 81.5504 75.5819 74.9172 74.5145C68.284 73.4471 72.0814 62.6516 72.0814 62.6516Z" clip-rule="evenodd" fill-rule="evenodd"></path>
<path fill="#C26B6B" d="M80.2345 64.6176C80.2345 64.2815 79.962 64.0091 79.6259 64.0091C77.4061 64.0091 75.3924 65.4568 73.5818 68.2655C73.3997 68.548 73.481 68.9246 73.7635 69.1067C74.046 69.2888 74.4227 69.2074 74.6048 68.9249C75.1569 68.0685 75.7168 67.3642 76.2844 66.8085C77.5121 67.09 78.1075 67.5551 78.2096 68.1802C78.2638 68.5119 78.5767 68.7369 78.9084 68.6827C79.2401 68.6285 79.465 68.3157 79.4109 67.984C79.2524 67.0142 78.5715 66.3193 77.4415 65.887C78.158 65.4443 78.8862 65.2262 79.6259 65.2262C79.962 65.2262 80.2345 64.9537 80.2345 64.6176Z" clip-rule="evenodd" fill-rule="evenodd"></path>
<path fill="#FAB5A3" d="M26.7977 64.2109C26.7977 64.2109 20.8966 57.5636 15.9225 63.0608C10.9483 68.5579 17.3287 77.1411 23.9619 76.0737C30.5951 75.0063 26.7977 64.2109 26.7977 64.2109Z" clip-rule="evenodd" fill-rule="evenodd"></path>
<path fill="#C26B6B" d="M18.8573 66.2087C18.8573 65.8726 19.1298 65.6001 19.4659 65.6001C21.6857 65.6001 23.6994 67.0478 25.5101 69.8565C25.6922 70.139 25.6108 70.5156 25.3283 70.6977C25.0458 70.8798 24.6692 70.7985 24.4871 70.516C23.935 69.6596 23.375 68.9552 22.8074 68.3995C21.5796 68.681 20.9841 69.1461 20.882 69.7713C20.8278 70.103 20.515 70.328 20.1833 70.2738C19.8516 70.2196 19.6266 69.9067 19.6808 69.575C19.8392 68.6052 20.5202 67.9103 21.6503 67.478C20.9338 67.0353 20.2056 66.8172 19.4659 66.8172C19.1298 66.8172 18.8573 66.5448 18.8573 66.2087Z" clip-rule="evenodd" fill-rule="evenodd"></path>
<path fill="#FFCDBB" d="M24.7151 55.7446C25.4395 43.2255 36.2307 33.8367 48.7707 33.8367H50.786C63.2495 33.8367 73.9392 43.1162 74.958 55.5381C75.1676 58.0926 75.2749 60.0939 75.1944 60.9373C74.8594 64.4491 74.394 66.2718 73.344 70.8886C71.7718 81.3549 64.4413 90.1787 53.9005 91.1314L49.5893 91.5211L45.258 91.1076C35.2935 90.1564 27.5602 82.3535 26.1287 72.4465C25.7612 70.3273 24.8459 66.2888 24.596 60.5428C24.5476 59.428 24.5997 57.7406 24.7151 55.7446Z" clip-rule="evenodd" fill-rule="evenodd"></path>
<mask height="59" width="52" y="33" x="24" maskUnits="userSpaceOnUse" style="mask-type:alpha" id="mask2_1:753">
<path fill="white" d="M24.7151 55.7446C25.4395 43.2255 36.2307 33.8367 48.7707 33.8367H50.786C63.2495 33.8367 73.9392 43.1162 74.958 55.5381C75.1676 58.0926 75.2749 60.0939 75.1944 60.9373C74.8594 64.4491 74.394 66.2718 73.344 70.8886C71.7718 81.3549 64.4413 90.1787 53.9005 91.1314L49.5893 91.5211L45.258 91.1076C35.2935 90.1564 27.5602 82.3535 26.1287 72.4465C25.7612 70.3273 24.8459 66.2888 24.596 60.5428C24.5476 59.428 24.5997 57.7406 24.7151 55.7446Z" clip-rule="evenodd" fill-rule="evenodd"></path>
</mask>
<g mask="url(#mask2_1:753)">
<circle fill="#FFA2A2" r="4.70076" cy="80.4013" cx="66.1292" opacity="0.624907"></circle>
<circle fill="#FFA2A2" r="4.70076" cy="80.4013" cx="32.7545" opacity="0.624907"></circle>
<ellipse fill="#83573D" ry="3.97756" rx="2.89277" cy="67.8981" cx="60.9415"></ellipse>
<ellipse fill="#83573D" ry="3.97756" rx="2.89277" cy="67.8981" cx="38.5224"></ellipse>
<path fill="#83573D" d="M65.2118 61.2792C65.2118 61.2792 56.7843 60.0668 53.7701 61.2917C57.2483 57.936 63.6743 58.3544 63.6743 58.3544L65.2118 61.2792Z" clip-rule="evenodd" fill-rule="evenodd"></path>
<path fill="#83573D" d="M32.2256 61.6136C32.2256 61.6136 40.6531 60.4012 43.6673 61.6261C40.1891 58.2704 33.7631 58.6888 33.7631 58.6888L32.2256 61.6136Z" clip-rule="evenodd" fill-rule="evenodd"></path>
<path stroke-linecap="round" stroke-width="1.30175" stroke="#D97B7B" d="M49.672 63.5082C49.672 63.5082 50.6076 68.9738 49.0645 70.5056C47.5215 72.0375 48.0056 74.7371 49.8037 75.2512"></path>
<path stroke-linecap="round" stroke-width="1.30175" stroke="#DA7B7B" d="M46.4395 80.7592C46.4395 80.7592 51.1706 80.6081 53.3282 78.6037"></path>
</g>
<path fill="#68411E" d="M50.8549 43.2843C50.8549 43.2843 54.0003 55.3787 66.0699 57.0159C72.4752 60.4716 73.9166 67.7095 73.9166 67.7095C73.9166 67.7095 80.7418 50.6693 76.5038 43.5601C72.7013 36.9933 50.8549 43.2843 50.8549 43.2843Z" clip-rule="evenodd" fill-rule="evenodd"></path>
<path fill="#68411E" d="M49.3529 45.5514C49.3529 45.5514 46.3597 54.6092 32.7543 55.7451C26.0937 58.0206 25.1542 68.6907 25.1542 68.6907C25.1542 68.6907 18.8252 51.3896 23.0749 44.6819C26.8774 38.1151 49.3529 45.5514 49.3529 45.5514Z" clip-rule="evenodd" fill-rule="evenodd"></path>
<path fill="#2D3669" d="M88.9607 25.6386V45.0965H88.3937V25.6386H88.9607Z"></path>
<path fill="#1D2343" d="M86.976 32.4423V40.9471C86.976 40.9471 88.1339 41.3265 88.7129 41.3265C89.2918 41.3265 90.3779 40.9471 90.3779 40.9471V32.4423C90.3779 32.4423 89.1731 32.0866 88.5997 32.0866C88.0263 32.0866 86.976 32.4423 86.976 32.4423Z" clip-rule="evenodd" fill-rule="evenodd"></path>
<path fill="#5A6ED5" d="M87.5051 42.8873L89.8351 42.5185C89.8351 42.5185 90.4375 61.9897 92.0072 64.3657C90.077 65.0977 88.1735 65.0909 86.8077 64.6499C86.6752 64.6071 86.6011 63.9603 86.5594 63.8814C86.5107 63.9841 86.3257 64.3255 86.1889 64.3971C85.6445 64.2227 85.0367 63.5125 85.0367 63.5125L87.5051 42.8873Z" clip-rule="evenodd" fill-rule="evenodd"></path>
<mask height="23" width="8" y="42" x="85" maskUnits="userSpaceOnUse" style="mask-type:alpha" id="mask3_1:753">
<path fill="white" d="M87.5051 42.8873L89.8351 42.5185C89.8351 42.5185 90.4375 61.9897 92.0072 64.3657C90.077 65.0977 88.1735 65.0909 86.8077 64.6499C86.6752 64.6071 86.6011 63.9603 86.5594 63.8814C86.5107 63.9841 86.3257 64.3255 86.1889 64.3971C85.6445 64.2227 85.0367 63.5125 85.0367 63.5125L87.5051 42.8873Z" clip-rule="evenodd" fill-rule="evenodd"></path>
</mask>
<g mask="url(#mask3_1:753)">
<path fill="#3E50AE" d="M89.8947 42.594C89.8947 42.594 90.2173 48.1863 90.013 53.3509C89.8088 58.5156 89.107 64.9221 84.4037 67.1605C80.6944 67.6591 108.445 78.7857 108.166 78.6126C107.887 78.4395 98.8082 42.7194 98.8082 42.7194L89.8947 42.594Z" clip-rule="evenodd" fill-rule="evenodd"></path>
<path fill="#3E50AE" d="M85.7099 64.4132C85.7099 64.4132 86.5882 61.2128 86.7722 58.4358C86.9865 64.5501 86.7722 65.3139 86.7722 65.3139L85.7099 64.4132Z" clip-rule="evenodd" fill-rule="evenodd"></path>
</g>
<path fill="#141932" d="M48.8583 12.4575C46.9792 12.5528 8.00242 24.8995 7.61244 26.1402C7.22246 27.3809 48.5842 35.845 48.5842 35.845C48.5842 35.845 90.6798 27.3916 89.8036 25.9142C86.766 23.9482 50.7374 12.3622 48.8583 12.4575Z" clip-rule="evenodd" fill-rule="evenodd"></path>
<mask height="24" width="83" y="12" x="7" maskUnits="userSpaceOnUse" style="mask-type:alpha" id="mask4_1:753">
<path fill="white" d="M48.8584 12.4575C46.9793 12.5528 8.00249 24.8995 7.61251 26.1402C7.22253 27.3809 48.5842 35.845 48.5842 35.845C48.5842 35.845 90.6799 27.3916 89.8036 25.9142C86.766 23.9482 50.7375 12.3622 48.8584 12.4575Z" clip-rule="evenodd" fill-rule="evenodd"></path>
</mask>
<g mask="url(#mask4_1:753)">
<g opacity="0.20738" style="mix-blend-mode:multiply">
<path fill="#141932" d="M47.3663 14.1611C47.3663 14.1611 59.6804 22.1099 47.8176 21.7243C35.9549 21.3387 26.3111 25.3042 23.2013 31.0347C20.0916 36.7652 88.0501 39.743 88.0501 39.743L99.2096 16.9388L48.6404 10.7076L47.3663 14.1611Z" clip-rule="evenodd" fill-rule="evenodd"></path>
</g>
<path fill="#1D2343" d="M8.82948 27.0282C8.82948 27.0282 47.0295 14.2169 48.7156 13.9853C50.4018 13.7536 88.991 26.538 88.991 26.538L95.9729 21.4559L54.6528 -4.32058L1.30799 18.6048L5.11493 28.9739L8.82948 27.0282Z" clip-rule="evenodd" fill-rule="evenodd"></path>
</g>
<path fill="#1D2343" d="M23.9491 29.8856L18.3394 45.632C18.3394 45.632 31.1003 52.0985 51.3934 51.3627C71.6865 50.6269 80.0581 43.5798 80.0581 43.5798L73.6937 29.3803C73.6937 29.3803 58.4267 24.3868 48.2588 24.5087C38.0909 24.6306 23.9491 29.8856 23.9491 29.8856Z" clip-rule="evenodd" fill-rule="evenodd"></path>
<mask height="28" width="63" y="24" x="18" maskUnits="userSpaceOnUse" style="mask-type:alpha" id="mask5_1:753">
<path fill="white" d="M23.9491 29.8856L18.3394 45.632C18.3394 45.632 31.1003 52.0985 51.3934 51.3627C71.6865 50.6269 80.0581 43.5798 80.0581 43.5798L73.6937 29.3803C73.6937 29.3803 58.4267 24.3868 48.2588 24.5087C38.0909 24.6306 23.9491 29.8856 23.9491 29.8856Z" clip-rule="evenodd" fill-rule="evenodd"></path>
</mask>
<g mask="url(#mask5_1:753)">
<path fill="#141932" d="M66.7253 24.492C66.7253 24.492 48.6927 27.8206 48.2866 36.5024C47.8806 45.1843 43.6885 49.133 19.7707 45.6666C-4.14716 42.2003 64.7231 73.4077 64.7231 73.4077C64.7231 73.4077 93.8026 47.294 93.9326 47.0227C94.0625 46.7514 90.7999 26.7483 90.5314 25.9228C90.2629 25.0973 66.7253 24.492 66.7253 24.492Z" clip-rule="evenodd" fill-rule="evenodd" opacity="0.665225"></path>
</g>
</svg>
